<svg xmlns="http://www.w3.org/2000/svg" viewBox="0 0 64 64" fill="none">
  <defs>
    <linearGradient id="g" x1="0" y1="0" x2="64" y2="64" gradientUnits="userSpaceOnUse">
      <stop offset="0" stop-color="#0ea5e9" />
      <stop offset="0.5" stop-color="#6366f1" />
      <stop offset="1" stop-color="#8b5cf6" />
    </linearGradient>
  </defs>
  <rect x="4" y="4" width="56" height="56" rx="14" fill="#0f172a" />
  <path d="M22 40c-4-2.4-6-5.6-6-10 0-8 6.5-14 16-14 9.5 0 16 6 16 14 0 4.4-2 7.6-6 10l-4.5-4.5c2.6-1.4 3.9-3.5 3.9-6.1 0-4.3-3.4-7.4-9.4-7.4-6 0-9.4 3.1-9.4 7.4 0 2.6 1.3 4.7 3.9 6.1L22 40z" fill="url(#g)" stroke="url(#g)" stroke-width="2" stroke-linejoin="round" />
  <path d="M26 44c4 2 8 2 12 0l-2.5-2.5c-2.1 1-4.9 1-7 0L26 44z" fill="#0ea5e9" opacity="0.75" />
</svg>